<svg width="30" height="30" viewBox="0 0 30 30" fill="none" xmlns="http://www.w3.org/2000/svg">
<path opacity="0.6" d="M5.371 7.96875C5.371 7.1921 6.0006 6.5625 6.77725 6.5625H23.3438C24.1204 6.5625 24.75 7.1921 24.75 7.96875V7.96875C24.75 8.7454 24.1204 9.375 23.3437 9.375H6.77725C6.0006 9.375 5.371 8.7454 5.371 7.96875V7.96875ZM5.25 15C5.25 14.2234 5.8796 13.5938 6.65625 13.5938H23.3437C24.1204 13.5938 24.75 14.2234 24.75 15V15C24.75 15.7767 24.1204 16.4063 23.3437 16.4063H6.65625C5.8796 16.4063 5.25 15.7767 5.25 15V15ZM5.25 22.0313C5.25 21.2546 5.8796 20.625 6.65625 20.625H23.3437C24.1204 20.625 24.75 21.2546 24.75 22.0313V22.0313C24.75 22.8079 24.1204 23.4375 23.3437 23.4375H6.65625C5.8796 23.4375 5.25 22.8079 5.25 22.0313V22.0313Z" fill="#737373"/>
</svg>
